<?xml version="1.0" encoding="UTF-8" standalone="no"?>
<svg
   width="961"
   height="880"
   viewBox="0 0 961 880"
   version="1.1"
   id="svg8"
   sodipodi:docname="marina_layout.svg"
   inkscape:version="1.4.3 (0d15f75042, 2025-12-25)"
   xml:space="preserve"
   xmlns:inkscape="http://www.inkscape.org/namespaces/inkscape"
   xmlns:sodipodi="http://sodipodi.sourceforge.net/DTD/sodipodi-0.dtd"
   xmlns="http://www.w3.org/2000/svg"
   xmlns:svg="http://www.w3.org/2000/svg"><defs
     id="defs8"><inkscape:path-effect
       effect="fillet_chamfer"
       id="path-effect8"
       is_visible="true"
       lpeversion="1"
       nodesatellites_param="F,0,0,1,0,0,0,1 @ F,0,0,1,0,0,0,1 @ F,0,0,1,0,0,0,1 @ F,0,0,1,0,0,0,1"
       radius="0"
       unit="px"
       method="auto"
       mode="F"
       chamfer_steps="1"
       flexible="false"
       use_knot_distance="true"
       apply_no_radius="true"
       apply_with_radius="true"
       only_selected="false"
       hide_knots="false" /></defs><sodipodi:namedview
     id="namedview8"
     pagecolor="#ffffff"
     bordercolor="#000000"
     borderopacity="0.25"
     inkscape:showpageshadow="2"
     inkscape:pageopacity="0.0"
     inkscape:pagecheckerboard="0"
     inkscape:deskcolor="#d1d1d1"
     inkscape:zoom="0.2521875"
     inkscape:cx="1453.2838"
     inkscape:cy="489.71499"
     inkscape:window-width="1681"
     inkscape:window-height="900"
     inkscape:window-x="0"
     inkscape:window-y="0"
     inkscape:window-maximized="1"
     inkscape:current-layer="layer5"
     showborder="true" /><!-- Water background --><path
     style="display:inline;fill:#000080"
     d="M 751.44334,245.97763 754.24723,69.332364 231.32118,116.99855 2.8038931,407.20148 V 774.51147 L 1.4019465,889.47108 1011.5044,884.56427 l -5.6077,-615.45453 -156.3171,31.5438 -39.25451,235.52702 22.43115,9.81362 -22.43115,128.97908 -473.85792,164.02775 -8.41168,-33.64672 -38.90402,15.7719 -13.66898,-34.69818 463.34333,-153.51314 14.01947,-262.164 -32.24477,-81.3129 -413.57423,135.98881 -12.61752,-22.43114 z"
     id="path11"
     inkscape:label="Water"
     sodipodi:nodetypes="cccccccccccccccccccccc" /><!-- LAND (Top) --><!-- Right Quay (Wide Concrete Area) --><!-- Buildings on Quay --><!-- Slanted Piers --><!-- NOTE for user: Berths will be dynamically rendered on top of this by the application --><g
     inkscape:groupmode="layer"
     id="layer3"
     inkscape:label="Environment"
     style="display:inline"
     sodipodi:insensitive="true"><path
       style="fill:#decd87;stroke-width:1.01786"
       d="m 867.8049,199.82706 135.1209,-52.68666 1.5688,121.90619 -157.01793,35.81279 z"
       id="path6"
       inkscape:label="Beach2"
       sodipodi:nodetypes="ccccc" /><path
       style="display:inline;fill:#abc837;stroke-width:1.0113"
       d="m 1003.0928,146.47129 -135.2879,58.84989 8.41168,-48.7495 -26.63698,1.4338 9.81362,-101.800434 138.79271,-10.036662 v -61.653785 l 4.20587,4.237702 z"
       id="path9"
       inkscape:label="Trees"
       sodipodi:nodetypes="ccccccccc" /><path
       style="display:inline;fill:#decd87;stroke-width:1.03416"
       d="M 238.05568,111.39076 72.787787,126.09036 -4.2405358,297.21887 -2.1942404,421.66075 Z"
       id="path7"
       inkscape:label="Strand2"
       sodipodi:nodetypes="ccccc" /><path
       style="display:inline;fill:#de8787;stroke-width:1.03219"
       d="M -4.2058396,131.4766 79.910952,124.00827 0,283.83018 Z"
       id="path10"
       inkscape:label="Houses1" /><path
       style="fill:#de8787;stroke-width:0.984736"
       d="M -4.1862113,139.42969 1001.3403,48.082489 999.57564,-0.764963 -7.0097326,0.117745 Z"
       id="path8"
       inkscape:label="Town"
       sodipodi:nodetypes="ccccc" /><path
       style="display:inline;fill:#c8b7b7"
       d="m 324.55062,806.75624 6.30876,35.74964 478.06377,-161.22386 25.93601,-141.5966 -25.93601,-5.60778 -23.83309,127.57713 z"
       id="path5"
       inkscape:label="Wall"
       sodipodi:nodetypes="ccccccc" /></g><g
     inkscape:groupmode="layer"
     id="layer4"
     inkscape:label="Buildings"
     style="display:inline"
     sodipodi:insensitive="true"><g
       id="g13"
       inkscape:label="Shape"
       style="display:inline"
       transform="translate(0,-26)"><path
         id="path4"
         style="display:inline;fill:#ececec"
         inkscape:label="Kai"
         d="m 785.13011,685.0062 90.79136,-501.80163 -25.36385,-4.83636 8.92193,-108.975397 H 751.42503 l -1.98265,209.169767 -38.66171,38.66171 37.67038,82.28005 -12.88723,256.7534 41.63568,27.75713 z m 0,0.99132 L 288.47584,847.58364 273.60595,810.90458 736.55514,653.28377 Z M 232.96159,142.75093 755.39033,97.149938 759.35564,69.392813 228.00496,77.32342 Z m 518.99433,133.65891 -458.52345,153.8256 12.88723,26.7658 408.13592,-138.83545 z"
         sodipodi:nodetypes="cccccccccccccccccccccccccc" /></g><path
       style="fill:#aa0000;stroke-width:1.31052"
       d="m 789.31067,171.83393 48.89061,9.90132 -2.49522,19.76178 -24.02214,-4.57973 -5.75313,28.38382 -24.29096,-5.28072 z"
       id="path13"
       inkscape:label="Office"
       sodipodi:nodetypes="ccccccc" /><path
       style="fill:#918a6f"
       d="m 843.27083,149.94429 34.3477,8.41167 -19.62725,104.44503 -35.04867,-11.21558 z"
       id="path12"
       inkscape:label="Facilities"
       sodipodi:nodetypes="ccccc" /></g><g
     inkscape:groupmode="layer"
     id="layer5"
     inkscape:label="Berthes"
     style="stroke:#00ffff;stroke-width:2;stroke-dasharray:none"><path
       style="fill:none;stroke:#ff0000;stroke-width:3;stroke-dasharray:none"
       d="m 891.20199,427.26147 115.98511,-0.99133 1.9827,382.6518 -122.92444,-10e-6 z"
       id="path18"
       sodipodi:nodetypes="ccccc"
       inkscape:label="Berth E" /><path
       style="fill:none;stroke:#ff6600;stroke-width:3;stroke-dasharray:none"
       d="m 710.78067,294.42379 36.67906,81.28873 -1.98265,1.98265 -401.48698,148.69888 -37.6704,-97.14994 z"
       id="path16"
       inkscape:label="Berth C "
       sodipodi:nodetypes="cccccc" /><path
       style="fill:none;stroke:#89a02c;stroke-width:3;stroke-dasharray:none"
       d="M 737.05081,628.00495 274.59727,785.13011 239.90086,690.95416 740.52044,526.88972 Z"
       id="path17"
       sodipodi:nodetypes="ccccc"
       inkscape:label="Berth D" /><path
       style="fill:none;stroke:#ff00ff;stroke-width:3;stroke-dasharray:none"
       d="m 293.43247,400.49566 406.44361,-137.7943 -26.76579,-88.228 -406.44362,137.79431 z"
       id="path15"
       inkscape:label="Berth B"
       sodipodi:nodetypes="ccccc" /><path
       style="display:inline;fill:none;stroke:#00ffff;stroke-width:3;stroke-dasharray:none"
       d="m 233.95291,115.98513 4.95664,94.17597 426.27012,-37.67039 -6.93927,-92.193312 z"
       id="path14"
       inkscape:label="Berth A"
       sodipodi:nodetypes="ccccc" /></g></svg>
